<svg width="33" height="33" viewBox="0 0 33 33" fill="none" xmlns="http://www.w3.org/2000/svg">
<path d="M22.4934 29.9918L22.5078 30.0056L22.5226 30.019C23.2893 30.7054 24.2042 31.0645 25.2272 31.0645C26.2519 31.0645 27.1596 30.7032 27.893 29.9918C28.6547 29.2529 29.0796 28.3427 29.0796 27.2976C29.0796 26.259 28.66 25.3536 27.9072 24.6173C27.71 24.412 27.4989 24.233 27.2752 24.0813H28.0796H29.0796V23.0813V20.2485V19.2485H28.0796H12.4434L12.9095 18.4157H23.1218C23.833 18.4157 24.5037 18.2628 25.0986 17.9196C25.6939 17.5763 26.1587 17.0739 26.5052 16.4585C26.5056 16.4579 26.5059 16.4572 26.5063 16.4565L31.6577 7.38323C31.8675 7.03804 32 6.64484 32 6.21627C32 5.57674 31.7732 4.99459 31.3165 4.53759C30.8595 4.03525 30.2574 3.76692 29.5738 3.76692H8.7355L7.65177 1.55933L7.37719 1H6.7541H2H1V2V4.76692V5.76692H2H4.29678L9.02023 15.4066L7.30934 18.4396L7.30009 18.456L7.29146 18.4728C7.00128 19.0357 6.84075 19.6309 6.84075 20.2485C6.84075 21.2671 7.22193 22.1688 7.93132 22.9143L7.94511 22.9288L7.95947 22.9427C8.3299 23.302 8.73873 23.5811 9.18152 23.7731C8.73873 23.965 8.3299 24.2441 7.95947 24.6034L7.94511 24.6174L7.93132 24.6319C7.22193 25.3773 6.84075 26.279 6.84075 27.2976C6.84075 28.3162 7.22193 29.2179 7.93132 29.9633L7.95888 29.9923L7.98867 30.019C8.75532 30.7054 9.67026 31.0645 10.6932 31.0645C11.7162 31.0645 12.6311 30.7054 13.3977 30.019L13.4126 30.0056L13.4269 29.9918C14.1886 29.2529 14.6136 28.3427 14.6136 27.2976C14.6136 26.2524 14.1886 25.3423 13.4269 24.6034C13.2218 24.4044 13.0048 24.23 12.7768 24.0813H23.1436C22.9156 24.23 22.6986 24.4044 22.4934 24.6034C21.7318 25.3423 21.3068 26.2524 21.3068 27.2976C21.3068 28.3427 21.7318 29.2529 22.4934 29.9918Z" stroke="#CB6E5C" stroke-width="2"/>
</svg>
