<svg width="32" height="32" viewBox="0 0 32 32" fill="none" xmlns="http://www.w3.org/2000/svg">
<path d="M30 31H31V30V26.4795C31 23.7578 28.8564 21.8514 25.5425 20.5575C22.2783 19.208 19.0951 18.5205 16 18.5205C12.9037 18.5205 9.69305 19.2085 6.3756 20.5575C3.10466 21.8556 1 23.7659 1 26.4795V30V31H2H30ZM16 17C18.1786 17 20.0695 16.2102 21.6194 14.6603C23.1693 13.1104 23.9591 11.2195 23.9591 9.04094C23.9591 6.86564 23.1717 4.97713 21.6263 3.42851C20.081 1.8247 18.1884 1 16 1C13.8116 1 11.919 1.82469 10.3737 3.42849C8.82834 4.97711 8.04094 6.86563 8.04094 9.04094C8.04094 11.2195 8.83069 13.1104 10.3806 14.6603C11.9305 16.2102 13.8214 17 16 17Z" stroke="#CB6E5C" stroke-width="2"/>
</svg>
